# xmcd
#
# Track frame offsets:
#  150
#  10197
#  21536
#  32940
#  43087
#  54976
#  67222
#  80699
#  93159
#  103665
#  116119
#  126709
#  142274
#  154002
#  163700
#  174541
#  184753
#  197391
#  208045
#  219316
#  230808
#  242469
#
# Disc length: 3396 seconds
#
# Revision: 0
# Processed by: cddbd v1.5.2PL0 Copyright (c) Steve Scherf et al.
# Submitted via: Collectorz.com Music Collector 6.9
#
DISCID=460d4216
DTITLE=Bill Haley and His Comets - The Ultimate Collection CD 1
DYEAR=1900
DGENRE=Rock and Roll
TTITLE0=Rock Around the Clock
TTITLE1=Shake Rattle And Roll
TTITLE2=Dim Dim the Lights
TTITLE3=Birth of the Boogie
TTITLE4=Mambo Rock
TTITLE5=Razzle Dazzle
TTITLE6=Two Hound Dogs
TTITLE7=Burn That Candle
TTITLE8=Rock a Beatin Boogie
TTITLE9=See You Later Alligator
TTITLE10=R-O-C-K
TTITLE11=The Saints Rock and Roll
TTITLE12=Hot Dog Buddy Buddy
TTITLE13=Rockin' Thru the Rye
TTITLE14=Rip It Up
TTITLE15=Teenagers Mother
TTITLE16=Rudys Rock
TTITLE17=Don't Knock the Rock
TTITLE18=Choo-Choo Ch'boogie
TTITLE19=Forty Cups of Coffee
TTITLE20=Hook Line and Sinker
TTITLE21=Wrong Note Billy Goat
EXTD=
EXTT0=
EXTT1=
EXTT2=
EXTT3=
EXTT4=
EXTT5=
EXTT6=
EXTT7=
EXTT8=
EXTT9=
EXTT10=
EXTT11=
EXTT12=
EXTT13=
EXTT14=
EXTT15=
EXTT16=
EXTT17=
EXTT18=
EXTT19=
EXTT20=
EXTT21=
PLAYORDER=
